<?xml version="1.0" encoding="UTF-8" standalone="no"?>
<!-- Created with Inkscape (http://www.inkscape.org/) -->

<svg
   xmlns:osb="http://www.openswatchbook.org/uri/2009/osb"
   xmlns:dc="http://purl.org/dc/elements/1.1/"
   xmlns:cc="http://creativecommons.org/ns#"
   xmlns:rdf="http://www.w3.org/1999/02/22-rdf-syntax-ns#"
   xmlns:svg="http://www.w3.org/2000/svg"
   xmlns="http://www.w3.org/2000/svg"
   xmlns:xlink="http://www.w3.org/1999/xlink"
   xmlns:sodipodi="http://sodipodi.sourceforge.net/DTD/sodipodi-0.dtd"
   xmlns:inkscape="http://www.inkscape.org/namespaces/inkscape"
   width="138.29305mm"
   height="21.139004mm"
   viewBox="0 0 490.01472 74.901982"
   id="svg2"
   version="1.1"
   inkscape:version="0.91 r13725"
   sodipodi:docname="SafeTelecom_white.svg">
  <defs
     id="defs4">
    <linearGradient
       inkscape:collect="always"
       id="linearGradient4216"
       osb:paint="gradient">
      <stop
         style="stop-color:#ffffff;stop-opacity:1;"
         offset="0"
         id="stop4218" />
      <stop
         style="stop-color:#ffffff;stop-opacity:0"
         offset="1"
         id="stop4220" />
    </linearGradient>
    <linearGradient
       inkscape:collect="always"
       xlink:href="#linearGradient4216"
       id="linearGradient4222"
       x1="177.9474"
       y1="198.16765"
       x2="227.53052"
       y2="254.54918"
       gradientUnits="userSpaceOnUse"
       spreadMethod="pad"
       gradientTransform="matrix(1.002848,0,0,0.93787288,-0.5572401,11.021809)" />
  </defs>
  <sodipodi:namedview
     id="base"
     pagecolor="#ffffff"
     bordercolor="#666666"
     borderopacity="1.0"
     inkscape:pageopacity="0.0"
     inkscape:pageshadow="2"
     inkscape:zoom="0.74"
     inkscape:cx="-123.41133"
     inkscape:cy="-46.842011"
     inkscape:document-units="px"
     inkscape:current-layer="layer1"
     showgrid="false"
     inkscape:snap-smooth-nodes="true"
     inkscape:object-nodes="true"
     inkscape:window-width="1536"
     inkscape:window-height="803"
     inkscape:window-x="-8"
     inkscape:window-y="-8"
     inkscape:window-maximized="1"
     fit-margin-top="0"
     fit-margin-left="0"
     fit-margin-right="0"
     fit-margin-bottom="0">
    <inkscape:grid
       type="xygrid"
       id="grid4153"
       originx="-160.86473"
       originy="-800" />
  </sodipodi:namedview>
  <metadata
     id="metadata7">
    <rdf:RDF>
      <cc:Work
         rdf:about="">
        <dc:format>image/svg+xml</dc:format>
        <dc:type
           rdf:resource="http://purl.org/dc/dcmitype/StillImage" />
        <dc:title></dc:title>
      </cc:Work>
    </rdf:RDF>
  </metadata>
  <g
     inkscape:label="Layer 1"
     inkscape:groupmode="layer"
     id="layer1"
     transform="translate(-160.86473,-177.4602)">
    <path
       style="fill:url(#linearGradient4222);fill-opacity:1.0;fill-rule:nonzero;stroke:#ffffff;stroke-width:5.81889915;stroke-linecap:butt;stroke-linejoin:miter;stroke-miterlimit:4;stroke-dasharray:none;stroke-opacity:1"
       d="m 179.73593,185.41589 c -5.24171,0.77003 -15.96175,0 -15.96175,0 l 0,14.81952 0,14.81954 c 2.17701,26.80605 31.92354,34.26453 31.92354,34.26453 0,0 29.74655,-7.45848 31.92356,-34.26453 l 0,-14.81954 0,-14.81952 c 0,0 -10.72005,0.77003 -15.96176,0 -5.56952,-0.81819 -15.9618,-4.83634 -15.9618,-4.83634 0,0 -10.39226,4.01815 -15.96179,4.83634 z"
       id="rect3351-1"
       inkscape:connector-curvature="0"
       sodipodi:nodetypes="acccccccaca" />
    <g
       transform="matrix(0.87750758,0,0,0.97679255,0,36.051734)"
       style="font-style:normal;font-variant:normal;font-weight:900;font-stretch:normal;font-size:79.77139282px;line-height:125%;font-family:Roboto;-inkscape-font-specification:'Roboto Heavy';letter-spacing:0px;word-spacing:0px;fill:#ffffff;fill-opacity:1;stroke:none;stroke-width:1px;stroke-linecap:butt;stroke-linejoin:miter;stroke-opacity:1"
       id="text4212">
      <path
         d="m 304.3572,205.59673 q 0,-2.99922 -2.1423,-4.67411 -2.10335,-1.67489 -7.43962,-3.46663 -5.33627,-1.79174 -8.72499,-3.46662 -11.0231,-5.41418 -11.0231,-14.87924 0,-4.71305 2.72656,-8.29654 2.76551,-3.62243 7.79018,-5.60892 5.02466,-2.02545 11.29575,-2.02545 6.11529,0 10.9452,2.18125 4.86886,2.18125 7.55647,6.23214 2.68761,4.01194 2.68761,9.19241 l -13.63281,0 q 0,-3.46663 -2.1423,-5.37522 -2.10335,-1.90859 -5.72578,-1.90859 -3.66138,0 -5.80368,1.63593 -2.10334,1.59699 -2.10334,4.08984 0,2.18125 2.33705,3.97299 2.33705,1.75279 8.21863,3.66139 5.88159,1.86964 9.65982,4.05089 9.19241,5.29732 9.19241,14.60657 0,7.43962 -5.60893,11.68527 -5.60893,4.24564 -15.3856,4.24564 -6.8943,0 -12.50323,-2.4539 -5.56997,-2.49286 -8.41339,-6.77745 -2.80446,-4.32355 -2.80446,-9.93248 l 13.71071,0 q 0,4.55725 2.33705,6.7385 2.37601,2.1423 7.67332,2.1423 3.38873,0 5.33627,-1.44118 1.9865,-1.48013 1.9865,-4.12879 z"
         id="path4171"
         inkscape:connector-curvature="0"
         style="fill:#ffffff;fill-opacity:1" />
      <path
         d="m 348.25484,220.67072 q -0.70112,-1.28538 -1.24643,-3.77824 -3.62243,4.55725 -10.12723,4.55725 -5.95948,0 -10.12723,-3.58348 -4.16774,-3.62243 -4.16774,-9.07555 0,-6.85536 5.06361,-10.36093 5.06362,-3.50558 14.72343,-3.50558 l 4.05089,0 0,-2.2202 q 0,-5.80368 -5.02466,-5.80368 -4.6741,0 -4.6741,4.5962 l -13.12645,0 q 0,-6.11529 5.18047,-9.93247 5.21942,-3.81719 13.28225,-3.81719 8.06283,0 12.73693,3.93404 4.67411,3.93404 4.79096,10.78939 l 0,18.65747 q 0.0779,5.80368 1.79174,8.8808 l 0,0.66217 -13.12644,0 z m -8.21864,-8.5692 q 2.45391,0 4.05089,-1.05167 1.63594,-1.05167 2.33705,-2.376 l 0,-6.73851 -3.81718,0 q -6.85535,0 -6.85535,6.15424 0,1.79174 1.20747,2.92132 1.20748,1.09062 3.07712,1.09062 z"
         id="path4173"
         inkscape:connector-curvature="0"
         style="fill:#ffffff;fill-opacity:1" />
      <path
         d="m 369.79467,220.67072 0,-33.03035 -6.11528,0 0,-9.1145 6.11528,0 0,-3.34978 q 0,-7.20591 4.24565,-11.1789 4.24564,-3.97299 11.91897,-3.97299 2.80446,0 6.15423,0.81797 l 0.039,9.65982 q -1.20748,-0.35056 -3.23293,-0.35056 -5.95948,0 -5.95948,5.14152 l 0,3.23292 8.21863,0 0,9.1145 -8.21863,0 0,33.03035 -13.1654,0 z"
         id="path4175"
         inkscape:connector-curvature="0"
         style="fill:#ffffff;fill-opacity:1" />
      <path
         d="m 415.32824,221.44973 q -9.69877,0 -15.6972,-5.76473 -5.99844,-5.80368 -5.99844,-15.07399 l 0,-1.09062 q 0,-6.46585 2.37601,-11.41261 2.41495,-4.94676 7.01115,-7.63437 4.59621,-2.72656 10.90625,-2.72656 8.8808,0 14.02231,5.53102 5.14152,5.49208 5.14152,15.34665 l 0,5.10256 -26.09709,0 q 0.70112,3.54453 3.07712,5.56998 2.37601,2.02545 6.15424,2.02545 6.23214,0 9.73772,-4.3625 l 5.99843,7.08906 q -2.4539,3.38872 -6.9722,5.41417 -4.47935,1.98649 -9.65982,1.98649 z m -1.48013,-33.57565 q -5.76473,0 -6.85536,7.63437 l 13.2433,0 0,-1.01272 q 0.0779,-3.15502 -1.59699,-4.86886 -1.67488,-1.75279 -4.79095,-1.75279 z"
         id="path4177"
         inkscape:connector-curvature="0"
         style="fill:#ffffff;fill-opacity:1" />
      <path
         d="m 483.53123,174.51393 -17.02153,0 0,46.15679 -13.67176,0 0,-46.15679 -16.70992,0 0,-10.55569 47.40321,0 0,10.55569 z"
         id="path4179"
         inkscape:connector-curvature="0"
         style="fill:#ffffff;fill-opacity:1" />
      <path
         d="m 505.69428,221.44973 q -9.69877,0 -15.69721,-5.76473 -5.99843,-5.80368 -5.99843,-15.07399 l 0,-1.09062 q 0,-6.46585 2.376,-11.41261 2.41496,-4.94676 7.01116,-7.63437 4.5962,-2.72656 10.90624,-2.72656 8.8808,0 14.02232,5.53102 5.14152,5.49208 5.14152,15.34665 l 0,5.10256 -26.09709,0 q 0.70111,3.54453 3.07712,5.56998 2.376,2.02545 6.15424,2.02545 6.23214,0 9.73771,-4.3625 l 5.99844,7.08906 q -2.45391,3.38872 -6.97221,5.41417 -4.47935,1.98649 -9.65981,1.98649 z m -1.48014,-33.57565 q -5.76473,0 -6.85535,7.63437 l 13.2433,0 0,-1.01272 q 0.0779,-3.15502 -1.59699,-4.86886 -1.67489,-1.75279 -4.79096,-1.75279 z"
         id="path4181"
         inkscape:connector-curvature="0"
         style="fill:#ffffff;fill-opacity:1" />
      <path
         d="m 542.61971,220.67072 -13.1654,0 0,-59.82855 13.1654,0 0,59.82855 z"
         id="path4183"
         inkscape:connector-curvature="0"
         style="fill:#ffffff;fill-opacity:1" />
      <path
         d="m 571.13176,221.44973 q -9.69877,0 -15.6972,-5.76473 -5.99844,-5.80368 -5.99844,-15.07399 l 0,-1.09062 q 0,-6.46585 2.37601,-11.41261 2.41495,-4.94676 7.01115,-7.63437 4.59621,-2.72656 10.90625,-2.72656 8.8808,0 14.02231,5.53102 5.14152,5.49208 5.14152,15.34665 l 0,5.10256 -26.09709,0 q 0.70112,3.54453 3.07712,5.56998 2.37601,2.02545 6.15424,2.02545 6.23214,0 9.73772,-4.3625 l 5.99843,7.08906 q -2.4539,3.38872 -6.9722,5.41417 -4.47935,1.98649 -9.65982,1.98649 z m -1.48013,-33.57565 q -5.76473,0 -6.85536,7.63437 l 13.2433,0 0,-1.01272 q 0.0779,-3.15502 -1.59698,-4.86886 -1.67489,-1.75279 -4.79096,-1.75279 z"
         id="path4185"
         inkscape:connector-curvature="0"
         style="fill:#ffffff;fill-opacity:1" />
      <path
         d="m 612.03018,211.32251 q 2.76551,0 4.2846,-1.48014 1.51908,-1.51908 1.48013,-4.20669 l 12.30848,0 q 0,6.93325 -4.98572,11.37365 -4.94676,4.4404 -12.77588,4.4404 -9.19241,0 -14.48973,-5.76473 -5.29732,-5.76473 -5.29732,-15.96986 l 0,-0.54531 q 0,-6.38794 2.33705,-11.2568 2.37601,-4.90781 6.81641,-7.51752 4.4404,-2.64866 10.51673,-2.64866 8.21864,0 13.04855,4.55725 4.82991,4.55726 4.82991,12.34743 l -12.30848,0 q 0,-3.27187 -1.59699,-5.02466 -1.59698,-1.75279 -4.28459,-1.75279 -5.10257,0 -5.95949,6.50479 -0.27265,2.0644 -0.27265,5.68683 0,6.34899 1.51908,8.8029 1.51909,2.45391 4.82991,2.45391 z"
         id="path4187"
         inkscape:connector-curvature="0"
         style="fill:#ffffff;fill-opacity:1" />
      <path
         d="m 633.99847,199.20878 q 0,-6.31004 2.4539,-11.21785 2.45391,-4.94676 7.05011,-7.59542 4.5962,-2.64866 10.78939,-2.64866 9.46507,0 14.91819,5.88158 5.45312,5.84263 5.45312,15.93091 l 0,0.46741 q 0,9.85457 -5.49207,15.65825 -5.45312,5.76473 -14.80133,5.76473 -8.99766,0 -14.45078,-5.37522 -5.45312,-5.41417 -5.88158,-14.64553 l -0.0389,-2.2202 z m 13.12644,0.81797 q 0,5.84263 1.83069,8.56919 1.8307,2.72657 5.41418,2.72657 7.01115,0 7.16696,-10.7894 l 0,-1.32433 q 0,-11.3347 -7.24487,-11.3347 -6.58269,0 -7.12801,9.77667 l -0.0389,2.376 z"
         id="path4189"
         inkscape:connector-curvature="0"
         style="fill:#ffffff;fill-opacity:1" />
      <path
         d="m 692.93113,178.52587 0.42846,4.94676 q 4.47935,-5.72578 12.03582,-5.72578 7.98493,0 10.7894,6.34899 4.28459,-6.34899 12.38637,-6.34899 12.81484,0 13.1654,15.50245 l 0,27.42142 -13.1654,0 0,-26.60345 q 0,-3.23293 -1.09062,-4.71306 -1.09063,-1.48013 -3.97299,-1.48013 -3.89509,0 -5.80368,3.46663 l 0.0389,0.54531 0,28.7847 -13.1654,0 0,-26.52555 q 0,-3.31083 -1.05167,-4.79096 -1.05167,-1.48013 -4.01194,-1.48013 -3.77823,0 -5.76473,3.46663 l 0,29.33001 -13.12644,0 0,-42.14485 12.30847,0 z"
         id="path4191"
         inkscape:connector-curvature="0"
         style="fill:#ffffff;fill-opacity:1" />
    </g>
  </g>
</svg>
